<?xml version="1.0" standalone="no"?>
<!DOCTYPE svg PUBLIC "-//W3C//DTD SVG 20010904//EN"
 "http://www.w3.org/TR/2001/REC-SVG-20010904/DTD/svg10.dtd">
<svg version="1.0" xmlns="http://www.w3.org/2000/svg"
 width="3867.000000pt" height="3908.000000pt" viewBox="0 0 3867.000000 3908.000000"
 preserveAspectRatio="xMidYMid meet">

<g transform="translate(0.000000,3908.000000) scale(0.100000,-0.100000)"
fill="#000000" stroke="none">
<path d="M19640 34199 c-2971 -128 -5780 -1157 -8118 -2972 -1948 -1513 -3466
-3497 -4419 -5776 -562 -1344 -914 -2793 -1037 -4266 -37 -439 -41 -556 -41
-1205 0 -648 3 -751 41 -1200 232 -2812 1303 -5492 3081 -7705 345 -430 604
-717 1037 -1151 334 -333 565 -548 856 -795 2157 -1829 4790 -2969 7585 -3284
1071 -120 2179 -120 3245 1 2757 312 5360 1429 7495 3214 1851 1549 3272 3525
4145 5766 562 1440 881 2968 950 4544 20 457 11 1120 -20 1590 -257 3795
-2030 7331 -4924 9818 -1673 1438 -3647 2463 -5781 3002 -952 240 -1899 377
-2915 420 -264 11 -914 11 -1180 -1z m730 -995 c0 -3 -46 -84 -102 -180 l-103
-174 -89 0 c-76 0 -87 2 -82 16 3 9 41 90 83 180 l76 164 109 0 c59 0 108 -3
108 -6z m-5 -443 c288 -74 514 -294 601 -586 36 -121 45 -330 19 -456 -65
-323 -301 -578 -612 -660 -120 -32 -301 -36 -428 -10 -120 24 -269 94 -362
171 -130 106 -233 271 -280 448 -35 133 -38 334 -5 465 86 345 352 592 700
647 89 14 276 4 367 -19z m3307 -398 l88 -26 34 -106 c138 -441 461 -1432 463
-1425 2 5 88 289 192 632 104 343 191 625 193 627 7 7 182 -52 186 -63 2 -6
-106 -371 -240 -811 -218 -720 -245 -801 -263 -800 -11 0 -55 13 -99 27 l-78
27 -247 763 c-167 519 -248 757 -254 745 -4 -10 -91 -292 -192 -627 -102 -335
-187 -611 -188 -612 -2 -2 -45 10 -97 25 -78 24 -95 32 -93 47 2 15 427 1426
474 1572 6 17 15 32 21 32 6 0 51 -12 100 -27z m-6672 -930 c133 -439 245
-805 247 -813 3 -11 -20 -22 -92 -43 -53 -16 -99 -27 -102 -24 -10 11 -493
1610 -488 1616 7 6 163 58 181 60 6 1 120 -358 254 -796z m-2734 -369 c17 -4
23 -18 33 -70 6 -35 14 -77 17 -93 l6 -30 -55 6 c-67 7 -200 -11 -282 -39
-191 -63 -350 -222 -411 -412 -34 -102 -38 -255 -11 -356 72 -268 280 -484
527 -546 88 -22 241 -15 330 15 191 65 352 216 436 408 l31 73 72 -57 c39 -31
71 -64 71 -74 0 -9 -20 -57 -44 -105 -172 -343 -569 -535 -944 -458 -474 97
-795 611 -683 1090 88 373 433 646 826 653 33 0 69 -2 81 -5z m12649 -672 c91
-46 139 -125 139 -227 0 -58 -5 -79 -28 -123 -86 -156 -301 -179 -417 -43
-114 132 -57 346 107 407 52 19 148 12 199 -14z m2726 -1477 c254 -267 293
-336 294 -510 0 -93 -3 -105 -34 -170 -45 -92 -159 -207 -251 -252 -114 -55
-227 -64 -343 -27 -27 9 -50 14 -52 13 -1 -2 -63 -190 -136 -417 l-133 -413
-78 78 c-43 43 -78 83 -78 89 0 7 59 183 131 393 l130 381 -30 38 c-16 20 -59
66 -95 101 l-65 64 -94 -89 c-52 -49 -171 -162 -264 -251 l-170 -162 -74 75
-74 74 30 29 c357 345 1200 1141 1206 1139 5 -2 86 -84 180 -183z m-17997
-780 c460 -176 836 -324 836 -330 0 -5 -31 -42 -68 -82 l-67 -71 -265 104
c-146 57 -267 104 -270 104 -3 0 -102 -109 -219 -241 l-213 -242 17 -36 c9
-20 71 -136 137 -259 l119 -222 -66 -75 c-37 -41 -70 -75 -74 -75 -13 0 -852
1591 -844 1603 15 26 128 147 134 145 4 -2 383 -147 843 -323z m20206 -2221
c105 -196 190 -357 188 -359 -2 -1 -39 -21 -83 -44 -65 -33 -82 -39 -90 -27
-5 7 -71 126 -145 264 l-134 252 -106 -56 c-259 -137 -370 -200 -370 -208 0
-5 54 -110 121 -234 66 -123 119 -225 117 -227 -8 -7 -155 -85 -160 -85 -3 0
-58 98 -122 218 -64 119 -120 223 -125 230 -6 10 -71 -21 -262 -124 -140 -75
-255 -137 -255 -138 -1 0 65 -125 147 -276 81 -151 145 -278 141 -282 -4 -3
-41 -25 -83 -47 l-75 -41 -199 372 c-110 204 -195 373 -190 375 6 2 341 181
745 398 404 217 738 395 742 395 3 0 92 -160 198 -356z m-22185 -564 c413
-183 754 -336 758 -340 8 -7 -54 -165 -71 -182 -4 -4 -356 -73 -782 -154 -426
-81 -779 -151 -783 -154 -4 -4 260 -125 588 -271 327 -145 595 -269 595 -276
0 -6 -18 -50 -40 -97 l-39 -86 -73 33 c-40 19 -386 172 -768 342 -382 169
-699 311 -703 315 -6 5 63 174 77 187 1 2 349 68 772 148 423 80 777 149 787
153 13 5 -149 81 -578 272 -328 146 -599 268 -601 272 -2 3 5 27 16 52 11 25
29 66 40 91 16 38 23 44 37 37 10 -5 356 -159 768 -342z m9850 -2535 l1088
-1064 52 47 c29 26 519 504 1089 1062 570 558 1041 1016 1046 1018 9 3 1760
-1705 1760 -1717 0 -3 -489 -495 -1087 -1093 l-1088 -1088 1098 -1098 1098
-1098 -887 -867 c-488 -477 -891 -866 -895 -865 -4 2 -488 473 -1075 1048
-586 575 -1077 1053 -1089 1062 -23 18 -23 17 -1111 -1047 -598 -586 -1091
-1064 -1095 -1063 -11 4 -1749 1702 -1749 1708 0 3 91 96 203 206 111 110 602
597 1091 1083 l890 882 -1107 1107 -1107 1107 887 868 c489 477 891 867 894
867 4 0 496 -479 1094 -1065z m13500 30 c54 -249 57 -265 53 -375 -3 -100 -7
-123 -32 -177 -34 -75 -112 -153 -188 -188 -163 -76 -360 -55 -476 49 l-40 36
-6 -32 c-19 -103 -117 -228 -216 -276 -133 -64 -306 -69 -424 -14 -118 55
-209 160 -255 294 -23 68 -136 576 -129 583 10 10 1643 373 1649 366 4 -3 32
-123 64 -266z m-24428 -320 c101 -42 156 -126 156 -235 0 -75 -17 -121 -62
-173 -74 -83 -204 -106 -308 -54 -86 44 -133 124 -133 227 0 148 101 250 247
250 35 0 80 -7 100 -15z m639 -1586 c-3 -17 -6 -64 -6 -104 l0 -72 -278 -91
-278 -92 -12 -322 c-6 -178 -8 -325 -4 -329 4 -3 126 -55 271 -114 l264 -109
-6 -99 c-3 -54 -7 -101 -10 -103 -2 -2 -378 152 -836 342 l-831 347 1 86 c0
47 4 95 8 105 6 16 181 78 852 302 464 155 850 283 858 283 10 1 12 -7 7 -30z
m23304 -1330 c459 -23 836 -42 838 -44 1 -1 -6 -180 -18 -398 -11 -217 -20
-398 -20 -402 0 -8 -176 -2 -184 6 -3 2 2 136 10 298 9 161 14 295 11 297 -5
6 -539 35 -544 31 -1 -2 -8 -120 -15 -262 l-13 -260 -90 4 c-49 1 -91 4 -93 6
-2 1 3 118 9 259 7 141 11 258 8 260 -4 4 -571 35 -576 32 -2 -1 -33 -584 -33
-615 0 -13 -176 -16 -183 -3 -9 16 37 832 47 832 6 0 387 -18 846 -41z
m-23379 -2129 c86 -17 174 -63 234 -124 87 -90 121 -171 200 -488 38 -152 68
-279 65 -281 -3 -3 -371 -98 -819 -212 -638 -163 -815 -205 -821 -194 -5 7
-37 126 -72 263 -60 238 -63 257 -62 366 0 139 21 202 91 280 85 95 197 142
338 142 105 1 175 -21 248 -77 25 -19 48 -35 50 -35 2 0 7 18 11 41 34 210
294 365 537 319z m22904 -1010 c435 -138 793 -255 797 -259 10 -9 -51 -191
-63 -191 -5 0 -326 101 -712 225 -387 124 -707 225 -713 225 -5 0 -51 -132
-102 -292 -51 -161 -95 -294 -98 -297 -5 -5 -155 39 -168 50 -4 4 20 94 54
201 34 106 91 284 127 396 41 130 69 202 76 199 7 -2 368 -118 802 -257z
m-21708 -2146 c141 -29 279 -100 394 -202 109 -97 216 -273 261 -427 33 -116
33 -334 0 -450 -68 -237 -242 -439 -477 -556 -145 -72 -230 -91 -395 -92 -160
-1 -230 14 -365 78 -240 113 -413 328 -476 592 -28 119 -23 331 11 438 119
375 468 633 858 635 66 0 145 -7 189 -16z m20477 -729 l696 -466 -132 -197
c-188 -280 -302 -393 -479 -476 -107 -51 -176 -66 -304 -66 -180 0 -325 48
-503 167 -171 113 -301 273 -358 438 -25 72 -28 93 -28 215 1 117 4 147 28
225 15 50 45 127 66 171 52 108 290 466 305 460 7 -2 325 -214 709 -471z
m-2290 -2744 c297 -350 541 -641 543 -647 3 -10 -590 -518 -610 -521 -13 -2
-117 118 -117 135 0 5 99 94 220 196 120 103 221 190 224 194 5 8 -340 418
-349 415 -3 -1 -90 -73 -193 -160 -103 -87 -192 -162 -199 -166 -10 -7 -123
116 -123 135 0 4 85 80 190 168 104 88 192 165 195 170 5 9 -330 413 -359 434
-9 6 -81 -49 -242 -185 -126 -107 -234 -198 -240 -202 -6 -3 -36 25 -69 64
-56 69 -57 71 -39 90 48 47 610 518 619 518 6 0 253 -287 549 -638z m-15639
504 c83 -23 246 -103 330 -163 39 -27 124 -96 190 -153 67 -57 136 -116 154
-131 l32 -28 -548 -644 c-301 -355 -551 -645 -555 -645 -10 -1 -343 286 -384
330 -102 110 -184 247 -226 379 -19 62 -23 97 -23 200 0 103 4 138 23 200 102
323 390 605 681 666 81 17 241 11 326 -11z m12960 -1463 c90 -46 135 -122 135
-227 0 -110 -47 -185 -145 -231 -126 -60 -287 2 -341 131 -9 22 -16 67 -16
100 0 105 50 185 147 232 41 20 61 23 115 20 39 -2 81 -12 105 -25z m-10425
-146 c86 -39 95 -45 98 -72 1 -16 13 -200 27 -408 13 -208 28 -382 32 -387 9
-8 233 -109 242 -109 4 0 71 148 151 330 80 181 150 330 157 330 6 0 50 -18
97 -40 75 -34 86 -42 78 -57 -5 -10 -159 -358 -342 -773 -183 -415 -334 -757
-336 -759 -6 -7 -445 192 -505 228 -66 41 -129 98 -171 155 -36 50 -68 153
-68 220 1 184 123 392 274 466 61 30 174 55 209 46 16 -4 18 1 12 47 -7 68
-65 779 -65 806 0 12 3 21 8 20 4 0 50 -19 102 -43z m7458 -932 c320 -66 559
-303 650 -644 34 -130 36 -324 4 -452 -83 -335 -341 -574 -684 -634 -109 -19
-268 -14 -363 12 -47 12 -147 49 -163 59 -4 3 24 185 30 191 4 3 25 -4 48 -16
118 -60 327 -81 460 -45 380 100 576 497 441 893 -40 114 -83 184 -171 273
-196 198 -489 241 -750 109 -72 -36 -164 -105 -213 -160 -25 -27 -47 -50 -50
-50 -3 0 -26 36 -52 80 l-47 80 22 29 c49 71 204 180 317 226 153 61 364 81
521 49z m-3631 -140 c278 -57 510 -244 612 -491 52 -128 66 -204 65 -363 -1
-176 -27 -290 -98 -428 -197 -380 -632 -550 -1051 -411 -126 42 -234 109 -330
205 -116 117 -197 265 -229 426 -21 100 -21 286 0 386 70 340 325 606 650 675
94 21 285 21 381 1z m-243 -1804 c39 -6 72 -12 74 -14 2 -3 -177 -289 -204
-324 -1 -2 -52 3 -114 10 l-112 13 129 163 c70 89 135 162 143 162 8 0 46 -5
84 -10z"/>
<path d="M20058 32590 c-249 -33 -453 -202 -532 -440 -113 -342 30 -718 327
-859 108 -52 172 -66 292 -65 247 0 462 135 569 356 60 123 81 228 73 363 -12
196 -67 324 -197 456 -66 67 -102 94 -160 122 -121 59 -255 83 -372 67z"/>
<path d="M29251 28619 c-116 -111 -211 -204 -211 -208 0 -17 229 -231 270
-252 61 -32 158 -32 216 -2 66 35 150 119 180 179 33 67 31 144 -6 218 -21 42
-207 255 -230 264 -4 1 -102 -88 -219 -199z"/>
<path d="M10921 28199 c39 -74 334 -608 347 -629 l15 -24 31 35 c17 20 95 108
173 196 l141 159 -350 140 c-193 76 -355 141 -360 143 -6 2 -4 -7 3 -20z"/>
<path d="M32555 22818 c-143 -33 -262 -61 -264 -64 -6 -6 58 -292 75 -331 39
-97 129 -157 234 -157 166 -1 290 105 290 248 0 28 -67 358 -74 362 0 0 -118
-26 -261 -58z"/>
<path d="M31815 22652 c-159 -36 -291 -66 -293 -67 -1 -1 13 -74 33 -161 54
-244 110 -334 229 -369 60 -18 88 -19 158 -4 153 33 248 141 248 281 0 42 -68
369 -79 379 -3 4 -136 -23 -296 -59z"/>
<path d="M8108 20407 c-190 -62 -349 -114 -352 -117 -2 -3 155 -69 349 -146
l354 -141 5 26 c3 14 8 131 11 259 6 192 5 232 -6 231 -8 0 -170 -51 -361
-112z"/>
<path d="M8963 17255 c-147 -45 -224 -155 -210 -298 10 -98 82 -362 98 -361
12 2 425 104 540 135 l37 9 -39 154 c-21 84 -47 174 -58 199 -26 60 -95 135
-146 158 -48 22 -159 24 -222 4z"/>
<path d="M8232 17012 c-68 -25 -120 -67 -149 -122 -33 -62 -31 -146 8 -290 16
-63 34 -131 40 -151 l9 -37 258 66 c141 36 259 67 262 69 8 7 -61 277 -84 328
-25 56 -72 107 -120 132 -48 25 -160 27 -224 5z"/>
<path d="M10075 14126 c-160 -31 -293 -102 -411 -221 -68 -68 -89 -97 -127
-176 -55 -115 -69 -174 -69 -287 3 -351 293 -642 642 -642 120 0 257 41 378
111 73 43 207 178 250 251 82 139 110 304 77 452 -21 99 -90 235 -155 308
-143 161 -380 243 -585 204z"/>
<path d="M30077 13694 c-122 -187 -167 -307 -167 -444 0 -185 90 -347 271
-486 296 -227 618 -223 854 12 56 56 205 260 205 282 0 5 -247 173 -548 374
l-548 365 -67 -103z"/>
<path d="M12613 11161 c-119 -33 -210 -90 -314 -198 -87 -90 -121 -136 -163
-219 -47 -92 -66 -171 -66 -269 0 -169 56 -291 200 -436 52 -52 117 -113 143
-134 47 -38 48 -38 66 -19 18 18 804 945 828 974 10 13 -5 29 -85 96 -125 105
-196 150 -295 186 -108 39 -215 46 -314 19z"/>
<path d="M15312 8718 c-96 -32 -193 -175 -200 -295 -10 -148 59 -220 318 -332
l88 -39 120 272 120 271 -71 34 c-197 92 -296 116 -375 89z"/>
<path d="M18955 8490 c-313 -62 -535 -349 -535 -690 0 -297 181 -555 450 -641
91 -30 252 -36 345 -15 233 55 420 245 486 493 27 101 30 270 6 363 -49 189
-177 351 -338 428 -130 63 -290 87 -414 62z"/>
</g>
</svg>
